<?xml version="1.0" encoding="UTF-8"?>
<svg version="1.1" xmlns="http://www.w3.org/2000/svg" width="58" height="58">
<path d="M0 0 C3.88388043 1.33926911 6.17928619 4.1136882 9 7 C10.13829088 7.96728004 11.2845635 8.92522412 12.4375 9.875 C15.49584517 12.45010015 17.9869061 15.24627458 20.51171875 18.3359375 C22.01736653 20.01941769 23.58294338 21.31932562 25.375 22.6875 C26.24125 23.450625 27.1075 24.21375 28 25 C28 26.32 28 27.64 28 29 C25.5 31.25 25.5 31.25 23 33 C19.63664406 31.54254576 17.45465995 29.68882146 14.890625 27.0859375 C14.13652344 26.32539063 13.38242187 25.56484375 12.60546875 24.78125 C11.82816406 23.9871875 11.05085938 23.193125 10.25 22.375 C9.45722656 21.57320312 8.66445313 20.77140625 7.84765625 19.9453125 C5.89385507 17.96797154 3.94487897 15.98611091 2 14 C-1.80475512 15.77002947 -4.28089246 18.01352925 -7.25 21 C-8.14203125 21.886875 -9.0340625 22.77375 -9.953125 23.6875 C-12.22093073 25.73489103 -12.22093073 25.73489103 -12 28 C-10.58050515 29.18291237 -9.15677733 30.36115607 -7.7109375 31.51171875 C-5.3644076 33.55287832 -3.49606419 35.89763634 -1.5234375 38.29296875 C0.00099119 40.00111064 1.58581554 41.38871237 3.375 42.8125 C4.24125 43.534375 5.1075 44.25625 6 45 C6 45.66 6 46.32 6 47 C6.99 47.495 6.99 47.495 8 48 C6.02 49.98 4.04 51.96 2 54 C-1.96728301 52.39556679 -4.66937281 49.63677803 -7.640625 46.66015625 C-8.16767029 46.13739609 -8.69471558 45.61463593 -9.23773193 45.07603455 C-10.34625128 43.97324225 -11.45218078 42.86784127 -12.55566406 41.76000977 C-14.24942964 40.06307143 -15.95611895 38.37991904 -17.6640625 36.69726562 C-18.74039316 35.62320676 -19.81594172 34.54836345 -20.890625 33.47265625 C-21.40304749 32.96944351 -21.91546997 32.46623077 -22.44342041 31.94776917 C-26 28.34381192 -26 28.34381192 -26 25 C-24.64453125 23.60546875 -24.64453125 23.60546875 -22.8125 22.1875 C-20.36809224 20.20356184 -18.54205676 18.45046812 -16.5 16 C-14.08478898 13.10174677 -11.59758335 10.90628342 -8.70703125 8.51953125 C-7.01306624 7.01163104 -5.61235812 5.44860782 -4.1875 3.6875 C-2 1 -2 1 0 0 Z " fill="#FFFFFF" transform="translate(28,2)"/>
<path d="M0 0 C4.89978413 3.95751795 9.00520914 8.12830382 13 13 C9.37 16.63 5.74 20.26 2 24 C-1.84281736 22.07859132 -3.80431927 20.4073184 -6.75 17.375 C-7.54921875 16.55773437 -8.3484375 15.74046875 -9.171875 14.8984375 C-9.77515625 14.27195312 -10.3784375 13.64546875 -11 13 C-9.46356148 9.31930113 -7.21849055 7.01224796 -4.375 4.25 C-3.55773438 3.45078125 -2.74046875 2.6515625 -1.8984375 1.828125 C-0.95871094 0.92320313 -0.95871094 0.92320313 0 0 Z M0 8 C-1.32 9.65 -2.64 11.3 -4 13 C-3.0409375 13.433125 -3.0409375 13.433125 -2.0625 13.875 C0 15 0 15 1 17 C2.32 15.68 3.64 14.36 5 13 C4.20882096 11.00016466 4.20882096 11.00016466 3 9 C2.01 8.67 1.02 8.34 0 8 Z " fill="#FFFFFF" transform="translate(40,28)"/>
</svg>
