<?xml version="1.0" standalone="no"?> <!DOCTYPE svg PUBLIC "-//W3C//DTD SVG 20010904//EN" "http://www.w3.org/TR/2001/REC-SVG-20010904/DTD/svg10.dtd"> <svg version="1.0" xmlns="http://www.w3.org/2000/svg" width="510.000000pt" height="510.000000pt" viewBox="0 0 510.000000 510.000000" preserveAspectRatio="xMidYMid meet"> <g transform="translate(0.000000,510.000000) scale(0.100000,-0.100000)" fill="#ff003c" stroke="none"> <path d="M3410 4903 c-31 -33 -398 -351 -529 -458 -136 -111 -171 -143 -171 -155 0 -21 24 -9 89 43 36 30 83 66 104 82 l39 29 -6 -520 c-7 -616 -11 -695 -35 -721 -9 -10 -27 -35 -40 -56 -22 -37 -247 -322 -366 -464 -91 -109 -115 -153 -83 -153 5 0 21 19 36 43 31 48 92 107 137 130 17 8 145 113 285 234 141 120 331 282 423 361 l167 142 0 745 c0 589 -3 745 -12 745 -7 0 -24 -12 -38 -27z"/> <path d="M1430 4308 c0 -7 17 -32 38 -54 20 -23 47 -60 60 -82 l22 -41 0 -515 c0 -337 3 -516 10 -516 6 0 10 5 10 11 0 23 28 -11 34 -42 4 -22 10 -30 21 -25 22 8 45 -4 55 -29 5 -12 24 -30 44 -39 19 -9 40 -24 45 -34 5 -9 30 -30 56 -47 l46 -30 1 -265 1 -265 -76 -77 c-59 -59 -96 -86 -162 -119 -47 -23 -85 -45 -85 -48 0 -3 5 -46 11 -94 7 -62 7 -92 0 -101 -7 -8 -11 -294 -11 -902 0 -489 0 -895 0 -901 0 -7 7 -13 16 -13 14 0 16 8 11 55 -4 36 0 73 9 103 15 50 86 142 110 142 8 0 14 5 14 10 0 6 5 10 11 10 19 0 89 68 76 74 -7 2 -3 5 9 5 11 1 27 12 34 26 7 14 17 25 22 25 4 0 8 5 8 10 0 6 -7 10 -17 10 -22 0 -8 13 18 17 16 2 20 -1 15 -13 -5 -14 -4 -15 8 -5 8 7 14 18 12 24 -1 7 -1 9 1 5 8 -13 31 -9 36 6 3 8 22 22 41 31 41 20 45 30 16 45 -13 7 -20 21 -20 40 0 16 -4 32 -10 35 -5 3 -10 17 -10 31 0 13 -4 24 -10 24 -5 0 -10 5 -10 10 0 12 46 6 63 -8 7 -5 22 -13 35 -16 l22 -7 0 668 0 668 28 50 c15 28 37 54 50 60 13 6 22 18 22 33 0 19 170 269 332 489 43 58 44 63 23 63 -8 0 -15 -6 -15 -14 0 -8 -4 -17 -9 -20 -5 -3 -5 15 0 41 8 39 21 59 88 128 88 91 116 129 107 144 -4 6 -115 -100 -248 -235 -133 -134 -280 -277 -327 -317 -46 -40 -109 -94 -139 -120 -29 -27 -56 -47 -58 -44 -10 9 -6 501 4 505 5 1 83 -33 171 -77 88 -45 165 -81 171 -81 21 0 7 17 -53 64 -34 26 -81 66 -104 87 l-43 39 0 471 0 470 -27 23 c-22 18 -225 178 -278 218 -5 4 -62 49 -125 99 -63 50 -124 95 -135 99 -12 4 -27 15 -34 24 -16 19 -31 21 -31 4z m421 -3024 l-9 -39 -1 41 c-1 22 2 44 6 48 12 12 14 -8 4 -50z m-36 -114 c19 -29 29 -37 45 -33 14 4 20 1 20 -11 0 -9 4 -16 9 -16 13 0 22 -30 15 -52 -3 -11 -11 -17 -18 -15 -10 4 -10 -3 -2 -28 8 -27 22 -39 73 -64 61 -30 88 -66 41 -53 -21 5 -22 4 -9 -11 7 -9 20 -17 27 -17 8 0 14 -4 14 -9 0 -5 3 -18 7 -28 6 -16 5 -16 -10 -4 -15 12 -17 12 -11 -3 4 -9 1 -16 -6 -16 -7 0 -11 9 -8 23 5 27 -4 37 -49 57 -18 8 -34 19 -36 25 -2 5 -2 1 0 -10 3 -11 7 -35 10 -54 l6 -34 -32 22 c-17 12 -31 28 -31 34 0 14 -37 88 -65 132 l-20 30 27 -17 c24 -16 64 -15 56 1 -2 3 -18 36 -36 72 -18 37 -39 72 -47 79 -17 14 -21 55 -5 45 6 -4 22 -24 35 -45z m115 -125 c0 -8 -2 -15 -4 -15 -2 0 -6 7 -10 15 -3 8 -1 15 4 15 6 0 10 -7 10 -15z m-65 -205 c3 -5 4 -10 1 -10 -3 0 -8 5 -11 10 -3 6 -4 10 -1 10 3 0 8 -4 11 -10z m22 -232 c-3 -8 -6 -5 -6 6 -1 11 2 17 5 13 3 -3 4 -12 1 -19z m-81 -83 c1 -14 -2 -22 -7 -19 -5 3 -14 -6 -20 -20 -6 -13 -20 -26 -30 -29 -17 -5 -17 -4 -1 22 9 14 19 28 22 31 4 3 9 13 13 23 9 25 22 21 23 -8z"/> <path d="M2665 4168 c-542 -404 -545 -407 -545 -428 0 -17 15 -12 58 20 23 17 42 27 42 23 0 -5 4 -3 8 3 4 6 19 17 34 25 53 28 247 174 248 187 0 7 4 11 9 8 23 -15 363 276 345 294 -6 6 -82 -44 -199 -132z"/> <path d="M2713 3878 c-61 -62 -131 -135 -155 -162 -23 -27 -51 -56 -60 -65 -10 -9 -76 -75 -148 -147 -138 -139 -223 -240 -214 -255 9 -16 261 216 301 278 8 12 19 23 24 23 23 0 339 344 339 370 0 5 4 10 10 10 15 0 33 41 23 51 -6 6 -53 -35 -120 -103z"/> <path d="M2560 2860 c0 -5 7 -10 15 -10 8 0 15 5 15 10 0 6 -7 10 -15 10 -8 0 -15 -4 -15 -10z"/> <path d="M2520 2623 c0 -11 63 -64 198 -166 59 -44 114 -88 122 -98 8 -10 32 -31 53 -46 l39 -28 -1 -765 c0 -689 1 -766 16 -782 21 -24 32 -23 30 2 -1 11 -6 20 -11 20 -5 0 -6 3 -3 6 4 4 18 -1 33 -10 14 -10 28 -15 31 -12 3 3 18 -1 34 -9 36 -19 43 -19 35 1 -4 9 -2 13 5 8 7 -4 10 -1 7 7 -3 8 -14 13 -26 12 -11 -1 -22 5 -26 15 -3 9 -9 23 -12 31 -5 9 -3 11 6 6 8 -5 11 -3 8 6 -3 8 -17 13 -32 12 -14 -1 -26 3 -26 10 0 7 -3 23 -6 37 -4 21 -4 22 5 8 14 -21 71 -51 68 -35 -4 19 36 20 50 1 21 -29 25 -9 8 42 -18 53 -14 84 9 65 12 -10 13 -2 9 51 -3 35 -10 69 -16 76 -6 8 -5 12 4 12 12 0 80 -140 79 -163 0 -16 49 -80 71 -91 36 -18 47 -45 25 -61 -23 -17 -14 -27 57 -69 27 -15 51 -35 54 -44 7 -18 22 -32 36 -32 12 0 9 798 -4 822 -8 15 -8 22 0 27 8 5 11 95 9 311 l-3 303 -90 53 c-49 29 -93 53 -98 53 -4 1 -25 12 -46 25 -55 35 -669 386 -686 393 -8 3 -15 1 -15 -4z m787 -1005 c-2 -13 -4 -5 -4 17 -1 22 1 32 4 23 2 -10 2 -28 0 -40z m33 -42 c0 -3 -4 -8 -10 -11 -5 -3 -10 -1 -10 4 0 6 5 11 10 11 6 0 10 -2 10 -4z m-190 -141 c0 -25 -4 -45 -10 -45 -11 0 -14 49 -4 74 10 26 14 18 14 -29z m202 -125 c-2 -27 -8 -50 -13 -50 -10 0 -12 60 -3 84 12 31 19 15 16 -34z m-105 -17 c-4 -17 -4 -17 -12 0 -4 9 -4 25 0 35 8 16 8 16 12 0 3 -10 3 -26 0 -35z m 70 -75 c-3 -8 -6 -5 -6 6 -1 11 2 17 5 13 3 -3 4 -12 1 -19z m-89 -55 c13 -25 22 -114 11 -107 -5 3 -9 11 -9 17 0 7 -6 23 -13 37 -22 42 -27 70 -11 70 7 0 17 -8 22 -17z m-101 -50 c-4 -3 -7 0 -7 7 0 7 3 10 7 7 3 -4 3 -10 0 -14z m250 -277 c34 -29 25 -43 -16 -26 -23 9 -32 21 -37 46 -3 19 -10 37 -15 40 -5 3 -9 15 -9 27 0 17 6 12 25 -20 13 -24 36 -54 52 -67z"/> <path d="M2863 2293 c4 -3 10 -3 14 0 3 4 0 7 -7 7 -7 0 -10 -3 -7 -7z"/> <path d="M2799 2148 c-24 -29 -60 -69 -79 -88 -86 -89 -210 -249 -210 -272 0 -14 -27 -38 -43 -38 -8 0 -41 -33 -73 -72 -32 -40 -66 -80 -75 -88 -9 -8 -50 -62 -92 -120 -41 -58 -85 -118 -98 -133 -16 -22 -19 -31 -10 -40 12 -12 30 5 106 99 17 20 35 42 40 48 6 6 39 45 75 86 36 41 67 77 70 80 13 11 70 111 70 121 0 8 4 8 13 1 10 -9 39 20 127 126 63 75 117 139 121 142 19 16 129 176 126 184 -8 24 -27 13 -68 -36z"/> <path d="M2130 1646 c0 -9 5 -16 10 -16 6 0 10 4 10 9 0 6 -4 13 -10 16 -5 3 -10 -1 -10 -9z"/> <path d="M2870 1640 c0 -7 3 -10 7 -7 3 4 3 10 0 14 -4 3 -7 0 -7 -7z"/> <path d="M2130 1611 c0 -5 5 -13 10 -16 6 -3 10 -2 10 4 0 5 -4 13 -10 16 -5 3 -10 2 -10 -4z"/> <path d="M2575 1534 c4 -11 8 -30 9 -43 0 -13 7 -26 14 -29 10 -3 12 7 10 39 -2 34 -7 45 -22 47 -15 3 -17 0 -11 -14z"/> <path d="M2660 1414 c-85 -74 -157 -141 -160 -147 -3 -7 -11 -13 -18 -15 -13 -2 -103 -79 -269 -229 -75 -67 -103 -106 -90 -120 10 -10 270 193 357 280 16 15 30 27 32 27 26 0 328 308 321 326 -3 8 -8 14 -12 14 -3 -1 -76 -62 -161 -136z"/> <path d="M2720 1277 c0 -8 6 -14 14 -14 8 0 12 6 9 14 -3 7 -9 13 -14 13 -5 0 -9 -6 -9 -13z"/> <path d="M2623 1204 c-6 -17 3 -44 15 -44 18 0 43 26 37 41 -7 19 -44 22 -52 3z"/> <path d="M3110 822 c0 -5 7 -15 15 -22 8 -7 15 -8 15 -2 0 5 -7 15 -15 22 -8 7 -15 8 -15 2z"/> <path d="M3220 813 c0 -19 48 -93 61 -93 18 0 19 20 2 37 -10 10 -24 31 -30 46 -14 30 -33 36 -33 10z"/> <path d="M3240 663 c0 -15 -2 -16 -10 -3 -5 8 -12 11 -17 7 -9 -10 18 -28 30 -20 5 3 19 -7 31 -22 12 -15 28 -26 35 -24 8 3 4 14 -13 32 -14 16 -26 32 -26 38 0 5 -7 9 -15 9 -8 0 -15 -8 -15 -17z"/> <path d="M1955 529 c-4 -11 -2 -26 4 -32 6 -6 11 -9 12 -6 0 2 2 14 5 26 5 29 -13 39 -21 12z"/> <path d="M1922 493 c-16 -17 -9 -43 13 -43 9 0 15 9 15 24 0 31 -11 38 -28 19z"/> <path d="M2132 433 c4 -39 29 -43 26 -4 -1 18 -8 31 -16 31 -9 0 -12 -9 -10 -27z"/> <path d="M2052 384 c4 -19 21 -19 24 1 1 8 -4 15 -13 15 -8 0 -13 -7 -11 -16z"/> <path d="M1792 214 c4 -21 22 -23 26 -1 2 10 -3 17 -13 17 -10 0 -15 -6 -13 -16z"/> </g> </svg>
